<svg width="12" height="12" viewBox="0 0 12 12" fill="none" xmlns="http://www.w3.org/2000/svg">
<path d="M5.9375 0C7.51222 0 9.02245 0.625556 10.1359 1.73905C11.2494 2.85255 11.875 4.36278 11.875 5.9375C11.875 7.51222 11.2494 9.02245 10.1359 10.1359C9.02245 11.2494 7.51222 11.875 5.9375 11.875C4.36278 11.875 2.85255 11.2494 1.73905 10.1359C0.625556 9.02245 0 7.51222 0 5.9375C0 4.36278 0.625556 2.85255 1.73905 1.73905C2.85255 0.625556 4.36278 0 5.9375 0ZM5.9375 0.625C4.52854 0.625 3.17728 1.18471 2.181 2.181C1.18471 3.17728 0.625 4.52854 0.625 5.9375C0.625 7.34646 1.18471 8.69772 2.181 9.69401C3.17728 10.6903 4.52854 11.25 5.9375 11.25C6.63515 11.25 7.32596 11.1126 7.97051 10.8456C8.61505 10.5786 9.20069 10.1873 9.69401 9.69401C10.1873 9.20069 10.5786 8.61505 10.8456 7.97051C11.1126 7.32596 11.25 6.63515 11.25 5.9375C11.25 4.52854 10.6903 3.17728 9.69401 2.181C8.69772 1.18471 7.34646 0.625 5.9375 0.625ZM5.625 2.5H6.25V5.8875L9.1875 7.58125L8.875 8.125L5.625 6.25V2.5Z" fill="#9A9A9A"/>
</svg>
