<svg width="24" height="24" viewBox="0 0 24 24" fill="none" xmlns="http://www.w3.org/2000/svg">
<path d="M22.2358 1.7656C21.1046 0.63507 19.5707 0 17.9714 0C16.372 0 14.8382 0.63507 13.7069 1.7656L1.76655 13.7056C0.635559 14.8364 0.000110323 16.3701 1.43638e-08 17.9694C-0.000110294 19.5687 0.635127 21.1026 1.76597 22.2335C2.89681 23.3645 4.43062 23.9999 6.02998 24C7.62933 24.0001 9.16323 23.3649 10.2942 22.2341L22.2358 10.2941C23.3655 9.1625 24 7.62885 24 6.02987C24 4.43089 23.3655 2.89724 22.2358 1.7656ZM9.29547 21.2342C8.42366 22.0707 7.25873 22.5323 6.05053 22.52C4.84233 22.5076 3.68708 22.0223 2.83255 21.1681C1.97803 20.3139 1.49228 19.1589 1.47949 17.9507C1.4667 16.7426 1.92789 15.5775 2.76414 14.7055L8.23672 9.23425L14.7681 15.7642L9.29547 21.2342ZM21.2382 9.29424L15.7656 14.7654L9.2343 8.23553L14.7069 2.7655C15.5787 1.92897 16.7436 1.46738 17.9518 1.47973C19.16 1.49209 20.3153 1.9774 21.1698 2.83159C22.0243 3.68577 22.5101 4.8408 22.5229 6.04895C22.5356 7.2571 22.0745 8.42216 21.2382 9.29424ZM19.0901 6.79567C19.2223 6.92801 19.2965 7.10741 19.2965 7.29445C19.2965 7.48149 19.2223 7.66088 19.0901 7.79322L16.2668 10.6165C16.1341 10.7471 15.9552 10.8201 15.769 10.8194C15.5828 10.8188 15.4044 10.7446 15.2726 10.613C15.1409 10.4814 15.0665 10.3031 15.0656 10.1169C15.0648 9.93072 15.1375 9.75172 15.268 9.61892L18.0914 6.79567C18.1569 6.73005 18.2348 6.67799 18.3204 6.64247C18.4061 6.60695 18.498 6.58867 18.5907 6.58867C18.6835 6.58867 18.7753 6.60695 18.861 6.64247C18.9467 6.67799 19.0246 6.73005 19.0901 6.79567Z" fill="#4CAF50"/>
</svg>
