<svg width="24" height="24" viewBox="0 0 24 24" fill="none" xmlns="http://www.w3.org/2000/svg">
<path d="M17.4681 0V1.86618H20.7928L17.6435 5.04428C16.5179 4.19421 15.1462 3.7337 13.7356 3.73236C11.9907 3.73236 10.3614 4.42284 9.12784 5.65732C8.51808 6.25971 8.03397 6.97714 7.70359 7.76803C7.37321 8.55892 7.20314 9.40753 7.20322 10.2646C7.20331 11.1218 7.37356 11.9703 7.7041 12.7612C8.03464 13.552 8.51889 14.2693 9.12877 14.8716C9.94059 15.6834 10.9073 16.2666 11.986 16.5623C12.0924 16.4812 12.2118 16.3963 12.307 16.3011C12.6981 15.9033 12.9792 15.4107 13.1226 14.8716C12.1065 14.7466 11.1619 14.2843 10.4398 13.5587C9.55894 12.6788 9.06998 11.5106 9.06998 10.264C9.06998 9.01738 9.55988 7.85102 10.4417 6.97018C11.3207 6.08654 12.489 5.59854 13.7356 5.59854C14.9823 5.59854 16.1496 6.08841 17.0295 6.97018C17.4648 7.40113 17.8101 7.91418 18.0456 8.47959C18.281 9.045 18.4019 9.65151 18.4012 10.264C18.4012 11.0711 18.1726 11.8222 17.7891 12.509C17.8787 12.9905 17.9347 13.4962 17.9347 13.9963C17.9347 14.4623 17.8958 14.9195 17.818 15.368C18.0047 15.2159 18.1708 15.0433 18.3434 14.8716C19.577 13.6362 20.2675 12.0089 20.2675 10.264C20.2675 8.83636 19.7972 7.47965 18.9555 6.35621L22.1337 3.20796V6.53163H24V0H17.4681ZM11.7527 7.69799C11.6463 7.77917 11.5269 7.86408 11.4317 7.95925C11.0286 8.36422 10.7655 8.85502 10.6162 9.38968C11.6333 9.52031 12.5617 9.96446 13.2989 10.7016C14.1807 11.5815 14.6706 12.7497 14.6706 13.9954C14.6706 15.2411 14.1807 16.4084 13.2989 17.2892C12.418 18.1738 11.2498 18.6618 10.0031 18.6618C8.75645 18.6618 7.58911 18.1719 6.70918 17.2902C6.27354 16.8595 5.92791 16.3465 5.69242 15.781C5.45693 15.2156 5.33627 14.6089 5.33748 13.9963C5.33748 13.1892 5.5661 12.4381 5.94961 11.7513C5.85698 11.2609 5.80827 10.7631 5.80404 10.264C5.80404 9.79869 5.84292 9.34147 5.92068 8.89234C5.73406 9.04444 5.5689 9.21706 5.39533 9.38968C4.16361 10.6223 3.47123 12.2515 3.47123 13.9963C3.47123 15.424 3.94152 16.7807 4.7832 17.9041L3.20995 19.4782L1.3437 17.6121L0 18.924L1.86625 20.7902L0 22.6564L1.3437 24L3.20995 22.1338L5.07621 24L6.38725 22.6564L4.521 20.7902L6.09611 19.217C7.22061 20.0684 8.59265 20.5287 10.0031 20.528C11.7481 20.528 13.3773 19.8375 14.6109 18.603C15.8445 17.3704 16.535 15.7412 16.535 13.9963C16.535 12.2515 15.8445 10.6242 14.61 9.38875C13.7981 8.57696 12.8314 7.99378 11.7527 7.69799Z" fill="#A1A8B0"/>
</svg>
