<svg width="24" height="18" viewBox="0 0 24 18" fill="none" xmlns="http://www.w3.org/2000/svg">
<path d="M3.2 16.8V17.6H4.8V16.8H3.2ZM11.2 16.8V17.6H12.8V16.8H11.2ZM4.8 16.8V16H3.2V16.8H4.8ZM11.2 16V16.8H12.8V16H11.2ZM8 12.8C8.84869 12.8 9.66263 13.1371 10.2627 13.7373C10.8629 14.3374 11.2 15.1513 11.2 16H12.8C12.8 14.727 12.2943 13.5061 11.3941 12.6059C10.4939 11.7057 9.27304 11.2 8 11.2V12.8ZM4.8 16C4.8 15.1513 5.13714 14.3374 5.73726 13.7373C6.33737 13.1371 7.15131 12.8 8 12.8V11.2C6.72696 11.2 5.50606 11.7057 4.60589 12.6059C3.70571 13.5061 3.2 14.727 3.2 16H4.8ZM8 3.2C7.15131 3.2 6.33737 3.53714 5.73726 4.13726C5.13714 4.73737 4.8 5.55131 4.8 6.4H6.4C6.4 5.97565 6.56857 5.56869 6.86863 5.26863C7.16869 4.96857 7.57565 4.8 8 4.8V3.2ZM11.2 6.4C11.2 5.55131 10.8629 4.73737 10.2627 4.13726C9.66263 3.53714 8.84869 3.2 8 3.2V4.8C8.42435 4.8 8.83131 4.96857 9.13137 5.26863C9.43143 5.56869 9.6 5.97565 9.6 6.4H11.2ZM8 9.6C8.84869 9.6 9.66263 9.26286 10.2627 8.66274C10.8629 8.06263 11.2 7.24869 11.2 6.4H9.6C9.6 6.82435 9.43143 7.23131 9.13137 7.53137C8.83131 7.83143 8.42435 8 8 8V9.6ZM8 8C7.57565 8 7.16869 7.83143 6.86863 7.53137C6.56857 7.23131 6.4 6.82435 6.4 6.4H4.8C4.8 7.24869 5.13714 8.06263 5.73726 8.66274C6.33737 9.26286 7.15131 9.6 8 9.6V8ZM2.4 1.6H21.6V0H2.4V1.6ZM22.4 2.4V15.2H24V2.4H22.4ZM21.6 16H2.4V17.6H21.6V16ZM1.6 15.2V2.4H0V15.2H1.6ZM2.4 16C2.18783 16 1.98434 15.9157 1.83431 15.7657C1.68429 15.6157 1.6 15.4122 1.6 15.2H0C0 15.8365 0.252856 16.447 0.702944 16.8971C1.15303 17.3471 1.76348 17.6 2.4 17.6V16ZM22.4 15.2C22.4 15.4122 22.3157 15.6157 22.1657 15.7657C22.0157 15.9157 21.8122 16 21.6 16V17.6C22.2365 17.6 22.847 17.3471 23.2971 16.8971C23.7471 16.447 24 15.8365 24 15.2H22.4ZM21.6 1.6C21.8122 1.6 22.0157 1.68429 22.1657 1.83431C22.3157 1.98434 22.4 2.18783 22.4 2.4H24C24 1.76348 23.7471 1.15303 23.2971 0.702944C22.847 0.252856 22.2365 0 21.6 0V1.6ZM2.4 0C1.76348 0 1.15303 0.252856 0.702944 0.702944C0.252856 1.15303 0 1.76348 0 2.4H1.6C1.6 2.18783 1.68429 1.98434 1.83431 1.83431C1.98434 1.68429 2.18783 1.6 2.4 1.6V0ZM14.4 6.4H19.2V4.8H14.4V6.4ZM14.4 11.2H19.2V9.6H14.4V11.2Z" fill="#A1A8B0"/>
</svg>
