<svg width="21" height="19" viewBox="0 0 21 19" fill="none" xmlns="http://www.w3.org/2000/svg">
<path d="M13.3448 4.8875C13.808 5.3507 14.1476 5.87778 14.3635 6.46875C14.5795 7.05973 14.6552 7.66667 14.5906 8.28959C14.5906 8.52917 14.5028 8.73298 14.3271 8.901C14.1514 9.06903 13.9438 9.15273 13.7042 9.15209C13.4646 9.15145 13.2608 9.06775 13.0928 8.901C12.9247 8.73425 12.841 8.53045 12.8417 8.28959C12.9215 7.87431 12.8976 7.475 12.7698 7.09167C12.642 6.70834 12.4424 6.38091 12.1709 6.10938C11.8993 5.83785 11.5719 5.63021 11.1886 5.48646C10.8052 5.34271 10.3979 5.31077 9.96669 5.39063C9.7271 5.39063 9.5233 5.30278 9.35527 5.12709C9.18724 4.95139 9.10355 4.74375 9.10419 4.50417C9.10482 4.26459 9.18884 4.0611 9.35623 3.89371C9.52362 3.72632 9.7271 3.64231 9.96669 3.64167C10.5736 3.57778 11.1726 3.65381 11.7636 3.86975C12.3545 4.0857 12.8816 4.42495 13.3448 4.8875ZM10.3021 2.65938C9.99863 2.65938 9.70314 2.6712 9.41564 2.69484C9.12814 2.71848 8.84064 2.76256 8.55314 2.82709C8.28162 2.875 8.03788 2.83507 7.82194 2.7073C7.60599 2.57952 7.45841 2.38785 7.37919 2.1323C7.29996 1.87674 7.32807 1.62917 7.46352 1.38959C7.59896 1.15 7.79446 1.00625 8.05002 0.958337C8.41738 0.878476 8.78889 0.822573 9.16456 0.790629C9.54023 0.758684 9.91941 0.742712 10.3021 0.742712C12.4903 0.742712 14.491 1.31771 16.3041 2.46771C18.1173 3.61771 19.5027 5.16702 20.4604 7.11563C20.5243 7.24341 20.5722 7.37534 20.6042 7.51142C20.6361 7.6475 20.6521 7.7871 20.6521 7.93021C20.6521 8.07332 20.64 8.21324 20.6157 8.34996C20.5914 8.48668 20.5476 8.6183 20.4844 8.7448C20.1969 9.38368 19.8417 9.98264 19.4187 10.5417C18.9958 11.1007 18.5284 11.6118 18.0167 12.075C17.825 12.2507 17.6014 12.3226 17.3459 12.2906C17.0903 12.2587 16.8827 12.1309 16.7229 11.9073C16.5632 11.6837 16.4955 11.4399 16.5198 11.1761C16.544 10.9122 16.6517 10.6928 16.8427 10.5177C17.2261 10.1504 17.5774 9.75105 17.8969 9.3198C18.2163 8.88855 18.4959 8.42535 18.7354 7.93021C17.9368 6.31702 16.7827 5.03541 15.273 4.08538C13.7633 3.13535 12.1063 2.66002 10.3021 2.65938ZM10.3021 15.1177C8.16182 15.1177 6.20523 14.5389 4.43231 13.3812C2.65939 12.2235 1.26182 10.702 0.239602 8.81667C0.159741 8.68889 0.100005 8.5493 0.0603934 8.39788C0.0207823 8.24646 0.000657318 8.09057 1.84295e-05 7.93021C-0.000620459 7.76985 0.0153517 7.61811 0.047935 7.475C0.0805184 7.33189 0.136421 7.18814 0.215643 7.04375C0.535088 6.40486 0.906602 5.79409 1.33019 5.21142C1.75377 4.62875 2.23677 4.09752 2.77919 3.61771L0.790644 1.60521C0.614949 1.41355 0.531255 1.1861 0.53956 0.922879C0.547866 0.659657 0.639546 0.439879 0.814602 0.263545C0.989657 0.0872119 1.21327 -0.000635429 1.48544 3.45968e-06C1.7576 0.000642349 1.98121 0.0884897 2.15627 0.263545L18.4479 16.5552C18.6236 16.7309 18.7156 16.9507 18.7239 17.2145C18.7322 17.4784 18.6402 17.7059 18.4479 17.8969C18.2722 18.0726 18.0486 18.1604 17.7771 18.1604C17.5056 18.1604 17.282 18.0726 17.1063 17.8969L13.7521 14.5906C13.1931 14.7663 12.6261 14.8983 12.0511 14.9864C11.4761 15.0746 10.8931 15.1184 10.3021 15.1177ZM4.12085 4.95938C3.65766 5.37466 3.23439 5.82986 2.85106 6.325C2.46773 6.82014 2.1403 7.35521 1.86877 7.93021C2.66738 9.54341 3.82153 10.8253 5.33123 11.776C6.84092 12.7267 8.49788 13.2017 10.3021 13.201C10.6215 13.201 10.933 13.1812 11.2365 13.1416C11.5399 13.102 11.8514 13.0579 12.1709 13.0094L11.3084 12.099C11.1327 12.1469 10.9649 12.183 10.8052 12.2073C10.6455 12.2315 10.4778 12.2434 10.3021 12.2427C9.10419 12.2427 8.0858 11.8236 7.24694 10.9854C6.40807 10.1472 5.98896 9.12877 5.9896 7.93021C5.9896 7.75452 6.00174 7.58681 6.02602 7.42709C6.0503 7.26737 6.08607 7.09966 6.13335 6.92396L4.12085 4.95938Z" fill="#9A9A9A"/>
</svg>
