<svg width="17" height="20" viewBox="0 0 17 20" fill="none" xmlns="http://www.w3.org/2000/svg">
<path d="M16.5446 6.07143H0.455357C0.203886 6.07143 0 5.86754 0 5.61607V4.25C0 3.24404 0.815469 2.42857 1.82143 2.42857H3.64286V0.455357C3.64286 0.203886 3.84674 0 4.09821 0H5.61607C5.86754 0 6.07143 0.203886 6.07143 0.455357V2.42857H10.9286V0.455357C10.9286 0.203886 11.1325 0 11.3839 0H12.9018C13.1533 0 13.3571 0.203886 13.3571 0.455357V2.42857H15.1786C16.1845 2.42857 17 3.24404 17 4.25V5.61607C17 5.86754 16.7961 6.07143 16.5446 6.07143ZM0.455357 7.28571H16.5446C16.7961 7.28571 17 7.4896 17 7.74107V17.6071C17 18.6131 16.1845 19.4286 15.1786 19.4286H1.82143C0.815469 19.4286 0 18.6131 0 17.6071V7.74107C0 7.4896 0.203886 7.28571 0.455357 7.28571ZM13.1027 10.9266L12.0338 9.84896C11.8567 9.67042 11.5684 9.66924 11.3899 9.84637L7.36616 13.8377L5.62138 12.0788C5.44429 11.9003 5.15593 11.8991 4.9774 12.0763L3.89983 13.1452C3.72129 13.3223 3.72012 13.6106 3.89725 13.7892L7.03166 16.9489C7.20876 17.1275 7.49708 17.1286 7.67561 16.9515L13.1002 11.5705C13.2787 11.3934 13.2799 11.1051 13.1027 10.9266Z" fill="#C5C5C5"/>
</svg>
