<svg width="15" height="15" viewBox="0 0 15 15" fill="none" xmlns="http://www.w3.org/2000/svg">
<path d="M3.16667 0.5V2.5M5.83333 0.5V2.5M8.5 0.5V2.5M11.1667 5.16667V11.1667C11.1667 11.8739 10.8857 12.5522 10.3856 13.0523C9.88552 13.5524 9.20724 13.8333 8.5 13.8333H3.16667C2.45942 13.8333 1.78115 13.5524 1.28105 13.0523C0.780952 12.5522 0.5 11.8739 0.5 11.1667V5.16667H11.8333C12.5406 5.16667 13.2189 5.44762 13.719 5.94771C14.219 6.44781 14.5 7.12609 14.5 7.83333C14.5 8.54058 14.219 9.21885 13.719 9.71895C13.2189 10.219 12.5406 10.5 11.8333 10.5H11.1667" stroke="#4CAF50" stroke-linecap="round" stroke-linejoin="round"/>
</svg>
