<svg width="23" height="19" viewBox="0 0 23 19" fill="none" xmlns="http://www.w3.org/2000/svg">
<path d="M4.33301 6.83331C4.33301 6.83331 1.76151 7.83331 1.33301 11.3333M18.333 6.83331C18.333 6.83331 20.9045 7.83331 21.333 11.3333M8.33301 6.83331C8.33301 6.83331 10.733 7.41681 11.333 10.3333C11.933 7.41681 14.333 6.83331 14.333 6.83331M9.33301 14.3333C9.33301 14.3333 7.23301 14.7083 6.33301 17.3333M13.333 14.3333C13.333 14.3333 15.433 14.7083 16.333 17.3333" stroke="#6E6E6E" stroke-width="2.66667" stroke-linecap="round"/>
<path d="M11.333 15.3333C12.7137 15.3333 13.833 14.214 13.833 12.8333C13.833 11.4526 12.7137 10.3333 11.333 10.3333C9.9523 10.3333 8.83301 11.4526 8.83301 12.8333C8.83301 14.214 9.9523 15.3333 11.333 15.3333Z" stroke="#6E6E6E" stroke-width="2.66667" stroke-linecap="round" stroke-linejoin="round"/>
<path d="M16.333 7.33331C17.9899 7.33331 19.333 5.99017 19.333 4.33331C19.333 2.67646 17.9899 1.33331 16.333 1.33331C14.6762 1.33331 13.333 2.67646 13.333 4.33331C13.333 5.99017 14.6762 7.33331 16.333 7.33331Z" stroke="#6E6E6E" stroke-width="2.66667" stroke-linecap="round" stroke-linejoin="round"/>
<path d="M6.33301 7.33331C7.98986 7.33331 9.33301 5.99017 9.33301 4.33331C9.33301 2.67646 7.98986 1.33331 6.33301 1.33331C4.67615 1.33331 3.33301 2.67646 3.33301 4.33331C3.33301 5.99017 4.67615 7.33331 6.33301 7.33331Z" stroke="#6E6E6E" stroke-width="2.66667" stroke-linecap="round" stroke-linejoin="round"/>
</svg>
