<svg width="12" height="14" viewBox="0 0 12 14" fill="none" xmlns="http://www.w3.org/2000/svg">
<path d="M5 4.50218C5 5.03261 4.78929 5.54132 4.41421 5.91639C4.03914 6.29146 3.53043 6.50218 3 6.50218C2.46957 6.50218 1.96086 6.29146 1.58579 5.91639C1.21071 5.54132 1 5.03261 1 4.50218V0.0021781H0V4.50218C0.00071792 5.21062 0.252123 5.89594 0.709693 6.43679C1.16726 6.97764 1.80147 7.33911 2.5 7.45718V14.0022H3.5V7.45718C4.19853 7.33911 4.83274 6.97764 5.29031 6.43679C5.74788 5.89594 5.99928 5.21062 6 4.50218V0.0021781H5V4.50218ZM9 0.0021781H8.5V14.0022H9.5V9.00218H11C11.2652 9.00218 11.5196 8.89682 11.7071 8.70928C11.8946 8.52175 12 8.2674 12 8.00218V3.00218C12.0155 2.60407 11.9484 2.20706 11.8032 1.83608C11.6579 1.46511 11.4374 1.12818 11.1557 0.846462C10.874 0.564742 10.5371 0.344315 10.1661 0.199023C9.79512 0.0537313 9.39811 -0.0132866 9 0.0021781ZM11 8.00218H9.5V1.04718C10.94 1.32718 11 2.81718 11 3.00218V8.00218Z" fill="#E1282B"/>
</svg>
