<svg width="24" height="18" viewBox="0 0 24 18" fill="none" xmlns="http://www.w3.org/2000/svg">
<path fill-rule="evenodd" clip-rule="evenodd" d="M17.6162 0C18.4733 0 19.1821 0.48825 19.701 1.00125C20.2413 1.53337 20.7367 2.24887 21.177 3.0375C22.0611 4.61925 22.8305 6.68588 23.3394 8.72775C23.8448 10.7539 24.1245 12.87 23.9459 14.5339C23.7662 16.2045 22.9069 18 20.9861 18C19.3281 18 18.0071 17.145 16.9265 16.2776L16.5322 15.9525L15.9796 15.4856L15.4808 15.0716C14.3362 14.1435 13.3196 13.5 11.9998 13.5C10.6799 13.5 9.66335 14.1435 8.51872 15.0716L8.01998 15.4856L7.46732 15.9525L7.07417 16.2776C5.99132 17.145 4.67034 18 3.01349 18C1.09154 18 0.232229 16.2045 0.0536269 14.5339C-0.123852 12.8689 0.154723 10.7539 0.660202 8.72775C1.16905 6.68588 1.9385 4.61925 2.82253 3.03637C3.26286 2.24887 3.75823 1.53337 4.29853 1.00012C4.81749 0.48825 5.52628 0 6.38335 0C6.96184 0 7.52685 0.138375 8.08288 0.30375L8.74787 0.507375C8.8587 0.541875 8.96915 0.5745 9.07924 0.60525C10.0509 0.88425 11.045 1.125 11.9998 1.125C12.9546 1.125 13.9487 0.88425 14.9203 0.60525L15.9144 0.304875C16.4738 0.1395 17.0433 0 17.6162 0ZM17.6162 2.25C17.186 2.25 16.7367 2.3805 16.3008 2.52338L15.7864 2.69325L15.5381 2.76975C14.544 3.05325 13.2916 3.375 11.9998 3.375C10.708 3.375 9.45554 3.05325 8.46143 2.76975L8.2143 2.69325L7.69872 2.52338C7.26288 2.37938 6.81357 2.25 6.38335 2.25C5.91381 2.33775 5.49258 2.90812 5.17469 3.43687L4.99721 3.74625L4.78379 4.1355C4.01771 5.50575 3.31228 7.3755 2.8405 9.27337C2.3968 11.0464 2.18113 12.7451 2.26313 14.0096L2.29234 14.3393L2.3148 14.5373L2.3485 14.7712C2.42601 15.2224 2.59338 15.75 3.01349 15.75C3.9256 15.75 4.68718 15.2955 5.63412 14.5418L6.0868 14.1727L6.9405 13.4572L7.32691 13.1423C8.52209 12.1939 10.0172 11.25 11.9998 11.25C13.9824 11.25 15.4775 12.195 16.6727 13.1423L17.0602 13.4572L17.9139 14.1727L18.3654 14.5418C19.3124 15.2955 20.0728 15.75 20.9861 15.75C21.368 15.75 21.541 15.3146 21.6275 14.8961L21.6702 14.6509L21.7117 14.2942C21.8499 13.005 21.6365 11.1836 21.1602 9.27337C20.7266 7.53412 20.0976 5.81737 19.4056 4.48762L19.0023 3.74513L18.8249 3.438C18.507 2.90813 18.0857 2.33775 17.6162 2.25ZM8.06828 4.5C8.81306 4.5 9.52734 4.79632 10.054 5.32376C10.5806 5.85121 10.8765 6.56658 10.8765 7.3125C10.8765 8.05842 10.5806 8.77379 10.054 9.30124C9.52734 9.82868 8.81306 10.125 8.06828 10.125C7.32349 10.125 6.60921 9.82868 6.08257 9.30124C5.55593 8.77379 5.26006 8.05842 5.26006 7.3125C5.26006 6.56658 5.55593 5.85121 6.08257 5.32376C6.60921 4.79632 7.32349 4.5 8.06828 4.5ZM15.9313 4.5C16.2064 4.50004 16.472 4.6012 16.6776 4.7843C16.8832 4.96741 17.0145 5.21972 17.0467 5.49338L17.0546 5.625V6.1875H17.6162C17.9025 6.18782 18.1779 6.29761 18.3861 6.49445C18.5943 6.69129 18.7195 6.96032 18.7363 7.24657C18.7531 7.53282 18.6601 7.81468 18.4764 8.03456C18.2926 8.25445 18.0319 8.39576 17.7476 8.42962L17.6162 8.4375H17.0546V9C17.0543 9.28674 16.9446 9.56254 16.7481 9.77104C16.5515 9.97954 16.2829 10.105 15.9971 10.1218C15.7113 10.1386 15.4299 10.0455 15.2103 9.86145C14.9908 9.67741 14.8497 9.41636 14.8159 9.13162L14.808 9V8.4375H14.2464C13.9601 8.43718 13.6847 8.32739 13.4765 8.13055C13.2683 7.93371 13.143 7.66468 13.1262 7.37843C13.1095 7.09218 13.2025 6.81032 13.3862 6.59044C13.57 6.37055 13.8306 6.22924 14.1149 6.19537L14.2464 6.1875H14.808V5.625C14.808 5.32663 14.9263 5.04048 15.137 4.8295C15.3477 4.61853 15.6334 4.5 15.9313 4.5ZM8.06828 6.75C7.91932 6.75 7.77646 6.80926 7.67114 6.91475C7.56581 7.02024 7.50663 7.16332 7.50663 7.3125C7.50663 7.46168 7.56581 7.60476 7.67114 7.71025C7.77646 7.81574 7.91932 7.875 8.06828 7.875C8.21723 7.875 8.36009 7.81574 8.46542 7.71025C8.57075 7.60476 8.62992 7.46168 8.62992 7.3125C8.62992 7.16332 8.57075 7.02024 8.46542 6.91475C8.36009 6.80926 8.21723 6.75 8.06828 6.75Z" fill="#6E6E6E"/>
</svg>
