<svg width="24" height="26" viewBox="0 0 24 26" fill="none" xmlns="http://www.w3.org/2000/svg">
<path d="M13.0588 23.4839C12.778 23.4839 12.5087 23.6164 12.3101 23.8523C12.1116 24.0883 12 24.4083 12 24.7419C12 25.0756 12.1116 25.3956 12.3101 25.6315C12.5087 25.8675 12.778 26 13.0588 26H21.5294C22.1847 26 22.8131 25.6907 23.2764 25.1402C23.7397 24.5897 24 23.8431 24 23.0645V2.93548C24 2.15694 23.7397 1.41029 23.2764 0.859783C22.8131 0.309273 22.1847 0 21.5294 0H13.0588C12.778 0 12.5087 0.132546 12.3101 0.368478C12.1116 0.604411 12 0.924405 12 1.25806C12 1.59172 12.1116 1.91172 12.3101 2.14765C12.5087 2.38358 12.778 2.51613 13.0588 2.51613H21.5294C21.623 2.51613 21.7128 2.56031 21.779 2.63895C21.8452 2.7176 21.8824 2.82426 21.8824 2.93548V23.0645C21.8824 23.1757 21.8452 23.2824 21.779 23.361C21.7128 23.4397 21.623 23.4839 21.5294 23.4839H13.0588Z" fill="black" fill-opacity="0.8"/>
<path fill-rule="evenodd" clip-rule="evenodd" d="M16.8801 16.7906C17.9151 16.7906 18.7551 15.9817 18.7551 14.985V11.7495C18.7551 10.7528 17.9151 9.94392 16.8801 9.94392H9.96059L9.93058 9.62615L9.84959 8.82303C9.82094 8.53938 9.72169 8.26657 9.56025 8.02772C9.3988 7.78887 9.17993 7.59104 8.92218 7.45099C8.66443 7.31094 8.37541 7.23281 8.07963 7.22322C7.78385 7.21364 7.49003 7.27288 7.22308 7.39592C4.77027 8.5256 2.55039 10.074 0.671084 11.9661L0.522584 12.1149C0.187226 12.4519 0 12.9005 0 13.3673C0 13.834 0.187226 14.2826 0.522584 14.6196L0.672584 14.7684C2.55144 16.6603 4.7708 18.2088 7.22308 19.3386C7.49003 19.4616 7.78385 19.5209 8.07963 19.5113C8.37541 19.5017 8.66443 19.4236 8.92218 19.2835C9.17993 19.1435 9.3988 18.9456 9.56025 18.7068C9.72169 18.4679 9.82094 18.1951 9.84959 17.9115L9.93058 17.1084L9.96059 16.7906H16.8801ZM8.91808 14.6239C8.63181 14.6241 8.35639 14.7294 8.14793 14.9184C7.93947 15.1073 7.81364 15.3657 7.79608 15.6408C7.76808 16.0597 7.73308 16.4791 7.69108 16.8989L7.66709 17.1329C5.70948 16.1601 3.92842 14.8885 2.39308 13.3673C3.92842 11.8461 5.70948 10.5744 7.66709 9.60159L7.69108 9.83559C7.73308 10.2545 7.76808 10.6738 7.79608 11.0937C7.81364 11.3689 7.93947 11.6272 8.14793 11.8161C8.35639 12.0051 8.63181 12.1104 8.91808 12.1106H16.5051V14.6239H8.91808Z" fill="black" fill-opacity="0.8"/>
</svg>
