<svg width="13" height="14" viewBox="0 0 13 14" fill="none" xmlns="http://www.w3.org/2000/svg">
<path d="M4.70064 11.5266H1.38064C0.276922 11.5266 0.250342 10.0416 1.07941 9.3972C1.88223 8.77327 2.00525 8.57392 2.54262 5.72553C2.99856 3.30682 3.99902 2.55511 5.24074 2.16188C5.17157 2.01228 5.13068 1.8477 5.13068 1.67221C5.13068 1.36132 5.25418 1.06316 5.47401 0.843332C5.69384 0.6235 5.992 0.5 6.30289 0.5C6.61378 0.5 6.91193 0.6235 7.13176 0.843332C7.3516 1.06316 7.4751 1.36132 7.4751 1.67221C7.4751 1.8477 7.43386 2.01228 7.36503 2.16188C8.60675 2.55511 9.60688 3.30717 10.0632 5.72553C10.6005 8.57392 10.7235 8.77327 11.5264 9.3972C12.3554 10.0416 12.3289 11.5266 11.2251 11.5266H7.90479M4.70064 11.5266C4.7112 11.9445 4.88462 12.3417 5.18392 12.6335C5.48322 12.9254 5.88469 13.0887 6.30272 13.0887C6.72074 13.0887 7.12222 12.9254 7.42152 12.6335C7.72081 12.3417 7.89424 11.9445 7.90479 11.5266M4.70064 11.5266H7.90479" stroke="black" stroke-linecap="round" stroke-linejoin="round"/>
</svg>
