<svg width="24" height="24" viewBox="0 0 24 24" fill="none" xmlns="http://www.w3.org/2000/svg">
<path d="M12.025 19C11.0917 19 10.2 18.825 9.35 18.475C8.5 18.125 7.74167 17.6167 7.075 16.95C6.40834 16.2833 5.9 15.525 5.55 14.675C5.2 13.825 5.025 12.9333 5.025 12C5.025 11.15 5.16667 10.3377 5.45 9.563C5.73334 8.78834 6.15 8.084 6.7 7.45C6.91667 7.21667 7.18334 7.13767 7.5 7.213C7.81667 7.28834 8.04167 7.49234 8.175 7.825C8.525 8.74167 8.96234 9.60834 9.487 10.425C10.0117 11.2417 10.6243 12 11.325 12.7C12.0257 13.4 12.784 14.0127 13.6 14.538C14.416 15.0633 15.2827 15.5007 16.2 15.85C16.5333 15.9833 16.7377 16.2083 16.813 16.525C16.8883 16.8417 16.809 17.1083 16.575 17.325C15.9417 17.875 15.2373 18.2917 14.462 18.575C13.6867 18.8583 12.8747 19 12.026 19M17.601 14.2C17.3343 14.1167 17.1427 13.9457 17.026 13.687C16.9093 13.4283 16.876 13.1577 16.926 12.875C17.076 12.075 17.026 11.2873 16.776 10.512C16.526 9.73667 16.1093 9.05767 15.526 8.475C14.9427 7.89234 14.2717 7.48 13.513 7.238C12.7543 6.996 11.9837 6.94167 11.201 7.075C10.9177 7.125 10.651 7.09167 10.401 6.975C10.151 6.85834 9.97567 6.66667 9.875 6.4C9.77434 6.13334 9.787 5.875 9.913 5.625C10.039 5.375 10.2347 5.21667 10.5 5.15C11.65 4.9 12.8 4.93767 13.95 5.263C15.1 5.58834 16.1083 6.184 16.975 7.05C17.825 7.9 18.4167 8.9 18.75 10.05C19.0833 11.2 19.125 12.35 18.875 13.5C18.8083 13.7833 18.65 13.9917 18.4 14.125C18.15 14.2583 17.8843 14.2833 17.601 14.2ZM12 3C11.7167 3 11.4793 2.904 11.288 2.712C11.0967 2.52 11.0007 2.28267 11 2V1C11 0.71667 11.096 0.479337 11.288 0.288003C11.48 0.0966701 11.7173 0.000670115 12 3.44828e-06C12.2827 -0.000663218 12.5203 0.0953368 12.713 0.288003C12.9057 0.48067 13.0013 0.718003 13 1V2C13 2.28334 12.904 2.521 12.712 2.713C12.52 2.905 12.2827 3.00067 12 3ZM12 24C11.7167 24 11.4793 23.904 11.288 23.712C11.0967 23.52 11.0007 23.2827 11 23V22C11 21.7167 11.096 21.4793 11.288 21.288C11.48 21.0967 11.7173 21.0007 12 21C12.2827 20.9993 12.5203 21.0953 12.713 21.288C12.9057 21.4807 13.0013 21.718 13 22V23C13 23.2833 12.904 23.521 12.712 23.713C12.52 23.905 12.2827 24.0007 12 24ZM18.375 5.65C18.175 5.45 18.075 5.21234 18.075 4.937C18.075 4.66167 18.175 4.42434 18.375 4.225L19.075 3.525C19.2583 3.34167 19.4877 3.25 19.763 3.25C20.0383 3.25 20.2757 3.34167 20.475 3.525C20.675 3.725 20.775 3.96234 20.775 4.237C20.775 4.51167 20.675 4.74934 20.475 4.95L19.775 5.65C19.575 5.85 19.3417 5.95 19.075 5.95C18.8083 5.95 18.575 5.85 18.375 5.65ZM3.525 20.475C3.325 20.275 3.225 20.0377 3.225 19.763C3.225 19.4883 3.325 19.2507 3.525 19.05L4.225 18.35C4.425 18.15 4.65834 18.05 4.925 18.05C5.19167 18.05 5.425 18.15 5.625 18.35C5.825 18.55 5.925 18.7877 5.925 19.063C5.925 19.3383 5.825 19.5757 5.625 19.775L4.925 20.475C4.74167 20.6583 4.51267 20.75 4.238 20.75C3.96334 20.75 3.72567 20.6583 3.525 20.475ZM22 13C21.7167 13 21.4793 12.904 21.288 12.712C21.0967 12.52 21.0007 12.2827 21 12C20.9993 11.7173 21.0953 11.48 21.288 11.288C21.4807 11.096 21.718 11 22 11H23C23.2833 11 23.521 11.096 23.713 11.288C23.905 11.48 24.0007 11.7173 24 12C23.9993 12.2827 23.9033 12.5203 23.712 12.713C23.5207 12.9057 23.2833 13.0013 23 13H22ZM1 13C0.71667 13 0.479337 12.904 0.288003 12.712C0.0966701 12.52 0.000670115 12.2827 3.44828e-06 12C-0.000663218 11.7173 0.0953368 11.48 0.288003 11.288C0.48067 11.096 0.718003 11 1 11H2C2.28334 11 2.521 11.096 2.713 11.288C2.905 11.48 3.00067 11.7173 3 12C2.99934 12.2827 2.90334 12.5203 2.712 12.713C2.52067 12.9057 2.28334 13.0013 2 13H1ZM20.475 20.475C20.275 20.675 20.0377 20.775 19.763 20.775C19.4883 20.775 19.2507 20.675 19.05 20.475L18.35 19.775C18.15 19.575 18.05 19.3417 18.05 19.075C18.05 18.8083 18.15 18.575 18.35 18.375C18.55 18.175 18.7877 18.075 19.063 18.075C19.3383 18.075 19.5757 18.175 19.775 18.375L20.475 19.075C20.6583 19.2583 20.75 19.4877 20.75 19.763C20.75 20.0383 20.6583 20.2757 20.475 20.475ZM5.65 5.625C5.45 5.825 5.21267 5.925 4.938 5.925C4.66334 5.925 4.42567 5.825 4.225 5.625L3.525 4.925C3.34167 4.74167 3.25 4.51267 3.25 4.238C3.25 3.96334 3.34167 3.72567 3.525 3.525C3.725 3.325 3.96267 3.225 4.238 3.225C4.51334 3.225 4.75067 3.325 4.95 3.525L5.65 4.225C5.85 4.425 5.95 4.65834 5.95 4.925C5.95 5.19167 5.85 5.425 5.65 5.625Z" fill="#4CAF50"/>
</svg>
